<?xml version="1.0" encoding="UTF-8"?> <svg xmlns="http://www.w3.org/2000/svg" viewBox="0 0 266.58 77.21"><defs><style>.cls-1{fill:#fff;}</style></defs><g id="Layer_1"><path class="cls-1" d="m52.81,30.8c-3.45-8.61-6.97-17.21-10.34-25.85-.93-2.36-2.5-3.33-4.88-3.33h-4.73c-2.71,0-4.05.93-5.02,3.4C18.77,27.78,9.61,50.49.48,73.22c-.95,2.37-.6,2.92,2,2.94,1.57.03,3.17,0,4.73,0,8.08-.14,6.45,1.31,9.68-6.64.29-.66,1.05-2.63,2-5.08.83-2.19,2.43-5.99,3.34-8.39,0,0,24.39-.1,25.22-.11s1.45-.47,1.92-1.74,5.06-12.76,5.55-14.03c.35-.83.44-2.12.06-3.27s-1.63-4.79-2.16-6.1Zm-26.54,14.13c3.09-8.31,5.66-15.25,8.9-23.95l8.99,23.77-17.89.18Z"></path><path class="cls-1" d="m102.18,30.8c-3.45-8.61-6.97-17.21-10.35-25.85-.92-2.36-2.26-3.33-4.88-3.33h-4.73c-2.65-.04-4.03.93-5.02,3.4-9.05,22.77-18.21,45.48-27.34,68.21-.96,2.37-.6,2.92,2,2.94,1.57.03,3.17,0,4.73,0,6.17-.1,6.68.71,8-2.44,2.36-11.61,12.73-20.18,24.71-20.18,4.55,0,8.85,1.24,12.58,3.4.82.42,1.9.46,2.88-.41,1-1.01,3.41-3.48,4.14-4.18s1.09-1.85.56-2.91c-2.47-6.18-6.5-16.72-7.28-18.64Zm-10.73,10.71c-1.89-.14-3.61-.06-5.34-.06-3.18.13-6.45.54-9.69,1.38,2.66-7.17,5.32-14.32,8.11-21.84l7.9,20.64c-.32-.03-.65-.08-.97-.1Z"></path><path class="cls-1" d="m163.74,45.29c-1.26-2.53-3.08-4.75-5.47-6.67-2.1-1.63-4.58-3.09-7.47-4.33-2.89-1.24-6.27-2.43-10.13-3.58-2.55-.73-4.67-1.38-6.29-1.93-1.66-.57-3.06-1.17-4.24-1.85-1.38-.73-2.42-1.57-3.11-2.5-.69-.92-1.04-2-1.04-3.26,0-3.05,1.3-5.27,3.88-6.64,1.85-.95,4.45-1.42,7.77-1.42,2.55,0,5.29.8,8.21,2.42,1.92,1.12,3.99,2.61,6.21,4.5.99.83,1.84,1.26,2.47,1.26.46,0,.92-.21,1.35-.61l5.55-6c.65-.66.97-1.34.97-2.02,0-.63-.3-1.26-.92-1.86-3.08-3.15-6.61-5.72-10.59-7.66-4.27-2.08-8.53-3.13-12.8-3.13-3.96,0-7.63.51-11,1.5-3.35.98-6.24,2.4-8.67,4.25-2.46,1.85-4.32,4.06-5.62,6.63-1.28,2.58-1.93,5.41-1.93,8.5,0,5.54,2.13,10.16,6.39,13.82,4.04,3.48,10.26,6.49,18.66,8.97l1.37.35c1.88.54,3.37.99,4.49,1.37,1.1.37,2.18.84,3.22,1.41,3.37,1.85,5.04,4.16,5.04,6.9,0,1.3-.28,2.51-.86,3.69-.4.84-.94,1.6-1.62,2.31h0s-.01.03-.03.04c-.25.26-.54.54-.83.77-1.13.95-2.51,1.7-4.1,2.24-1.6.54-3.37.8-5.27.8-2.08,0-4.11-.35-6.13-1.04-.07-.01-.15-.04-.21-.07-3.49-1.06-6.87-2.83-9.87-4.75-.28-.18-.55-.37-.84-.57-.55-.39-1.13-.8-1.71-1.24-1.05-.77-1.74-.95-2.38-.9-.47.03-.91.26-1.33.69l-4.22,4.33-.68.84c-.61.7-.88,1.39-.84,2.07.08,1.19,1.18,2.16,1.3,2.28h.01c.58.64,1.19,1.23,1.81,1.79.3.29.62.58.94.84.33.28.65.55.98.81s.66.52,1.01.77c1.02.77,2.07,1.48,3.18,2.14,1.33.81,2.72,1.55,4.17,2.21,5,2.29,10.04,3.44,15.12,3.44,3.66,0,7.18-.54,10.55-1.64,3.34-1.09,6.34-2.65,8.92-4.67,2.69-2.04,4.78-4.5,6.28-7.36,1.49-2.86,2.24-5.98,2.24-9.39s-.62-6.35-1.89-8.86Z"></path><path class="cls-1" d="m105.3,75.32c-.22-1.6-.69-3.13-1.35-4.55-2.56-5.54-8.15-9.39-14.65-9.39s-12.1,3.84-14.67,9.39c-.66,1.42-1.11,2.95-1.33,4.55-.13.99.65,1.88,1.64,1.88h28.72c1,0,1.77-.89,1.64-1.88Z"></path><path class="cls-1" d="m103.96,70.77h-29.32c2.57-5.54,8.16-9.39,14.67-9.39s12.09,3.84,14.65,9.39Z"></path><path class="cls-1" d="m255.86,74.16l-7.5-70.23s0-.07-.01-.11v-.19c-.11-1.31-.81-2.01-2.12-2.01h-13.34c-1.01,0-1.4.59-1.91,1.9l-17.57,49.34h0s-.08.22-.08.22l-12.3-33.86c-.32-.25-.72.04-.78.58-.78,5.27-2.94,10.8-6.58,14.35l-.6.41,13.93,38.29c.51,1.5,1.01,1.8,2.01,1.8h8.43c.17,0,.33,0,.47-.03.51-.06.83-.26,1.13-.73.04-.04.08-.08.1-.14.14-.23.26-.54.41-.91l17.06-46.05,1.6,14.79,3.52,32.67c.19,1.25.66,1.86,1.86,1.9.06.01.1.01.15.01h10.23c.11,0,.22,0,.33-.03.08,0,.17-.01.25-.04.92-.17,1.45-.78,1.35-1.8,0-.04-.01-.1-.01-.14Z"></path><path class="cls-1" d="m189.3,37.72s-1.03.39-1.49.61c-2.97,1.48-6.27,2.36-9.75,2.48h-.32c-.61,0-1.33-.14-1.81-.18-.79-.07-1.32.23-1.38.74-.39,3.58-3.54,32.71-3.54,32.71-.1,1.31.61,2.02,1.92,2.02h.12c.28.06.58.07.91.06,1.45-.04,2.93-.06,4.39-.06s2.94.01,4.4.06c.35.01.65-.01.91-.08.15-.03.28-.06.4-.1.03,0,.06-.01.08-.03.8-.33,1.16-1.06,1.3-2.28.01-.21.04-.41.06-.61.07-.68.15-1.35.23-2.03.28-2.66.58-5.34.87-8.01.44-4.04.9-8.09,1.35-12.13.44-4,1.32-13.17,1.32-13.17Z"></path><path class="cls-1" d="m184.87,3.47c-1.34-.81-2.82-1.42-4.39-1.81-.97-.24-1.94.45-2.05,1.43l-3.03,28.56c-.11,1,.7,1.86,1.7,1.83,1.62-.05,3.19-.35,4.67-.86,5.78-1.96,10.19-7.11,10.88-13.58.69-6.47-2.54-12.44-7.78-15.58Z"></path><path class="cls-1" d="m181.77,32.63l2.44-22.94.66-6.22c5.24,3.14,8.47,9.11,7.78,15.58-.69,6.46-5.1,11.62-10.88,13.58Z"></path></g><g id="_Layer_"><path class="cls-1" d="m266.58,7.59c0,3.58-2.93,6.54-6.57,6.54s-6.56-2.93-6.56-6.59,2.93-6.54,6.59-6.54,6.54,2.93,6.54,6.59Zm-11.91.07c0,2.96,2.5,5.23,5.3,5.23,3.13,0,5.42-2.75,5.42-5.44,0-3.1-2.63-5.18-5.23-5.18-.93,0-1.89.24-2.77.76-1.74,1.02-2.72,2.81-2.72,4.63Zm2.6-3.48c0-.17.09-.26.22-.26h3c1.29.07,2.31,1.08,2.31,2.38,0,.9-.45,1.62-1.15,2.07l1.24,2.58s.02.05.02.07c0,.1-.09.17-.22.17h-1.07c-.09,0-.16-.07-.19-.15l-1.08-2.38h-1.7v2.32c0,.12-.07.21-.22.21h-.91c-.12,0-.22-.07-.22-.21v-6.8Zm3.18,1.07h-1.82v2.07h1.82c.58,0,1-.45,1-1.03,0-.52-.4-1.03-1-1.03Z"></path></g></svg> 