<svg width="588" height="164" viewBox="0 0 588 164" fill="none" xmlns="http://www.w3.org/2000/svg">
<path d="M67.04 66.76C62.452 66.76 58.086 67.648 53.942 69.424C49.946 71.2 46.468 73.568 43.508 76.528C40.548 79.488 38.18 83.04 36.404 87.184C34.628 91.18 33.74 95.472 33.74 100.06C33.74 104.648 34.628 109.014 36.404 113.158C38.18 117.154 40.548 120.632 43.508 123.592C46.468 126.552 49.946 128.92 53.942 130.696C58.086 132.472 62.452 133.36 67.04 133.36C73.256 133.36 78.806 131.806 83.69 128.698C88.722 125.59 92.644 121.52 95.456 116.488H131.198C129.274 123.296 126.314 129.586 122.318 135.358C118.322 140.982 113.512 145.94 107.888 150.232C102.264 154.376 95.974 157.632 89.018 160C82.062 162.368 74.736 163.552 67.04 163.552C57.864 163.552 49.206 161.924 41.066 158.668C32.926 155.264 25.822 150.676 19.754 144.904C13.834 139.132 9.098 132.398 5.546 124.702C2.142 117.006 0.44 108.792 0.44 100.06C0.44 91.328 2.142 83.114 5.546 75.418C9.098 67.722 13.834 60.988 19.754 55.216C25.822 49.444 32.926 44.93 41.066 41.674C49.206 38.27 57.864 36.568 67.04 36.568C74.884 36.568 82.284 37.826 89.24 40.342C96.196 42.71 102.486 46.04 108.11 50.332C113.882 54.476 118.766 59.508 122.762 65.428C126.906 71.2 129.866 77.564 131.642 84.52H96.566C93.606 79.192 89.536 74.9 84.356 71.644C79.324 68.388 73.552 66.76 67.04 66.76ZM139.624 0.159994H172.924V160H139.624V0.159994ZM248.404 36.568C257.58 36.568 266.238 38.27 274.378 41.674C282.518 44.93 289.548 49.444 295.468 55.216C301.536 60.988 306.272 67.722 309.676 75.418C313.228 83.114 315.004 91.328 315.004 100.06C315.004 102.132 314.856 104.13 314.56 106.054C314.412 107.83 314.19 109.68 313.894 111.604H217.102C219.618 117.968 223.614 123.222 229.09 127.366C234.714 131.362 241.152 133.36 248.404 133.36C253.732 133.36 258.69 132.176 263.278 129.808C267.866 127.44 271.64 124.332 274.6 120.484H311.452C309.232 126.7 306.05 132.472 301.906 137.8C297.91 143.128 293.1 147.716 287.476 151.564C282 155.264 275.932 158.15 269.272 160.222C262.76 162.442 255.804 163.552 248.404 163.552C239.228 163.552 230.57 161.924 222.43 158.668C214.29 155.264 207.186 150.676 201.118 144.904C195.198 139.132 190.462 132.398 186.91 124.702C183.506 117.006 181.804 108.792 181.804 100.06C181.804 91.328 183.506 83.114 186.91 75.418C190.462 67.722 195.198 60.988 201.118 55.216C207.186 49.444 214.29 44.93 222.43 41.674C230.57 38.27 239.228 36.568 248.404 36.568ZM279.706 88.516C277.19 82.152 273.12 76.972 267.496 72.976C261.872 68.832 255.508 66.76 248.404 66.76C241.152 66.76 234.714 68.832 229.09 72.976C223.614 76.972 219.618 82.152 217.102 88.516H279.706ZM383.73 36.568C392.906 36.568 401.49 38.27 409.482 41.674C417.474 44.93 424.43 49.444 430.35 55.216C436.27 60.988 440.932 67.722 444.336 75.418C447.888 83.114 449.664 91.328 449.664 100.06V160H418.584V145.126C414.736 150.75 409.778 155.264 403.71 158.668C397.642 161.924 390.982 163.552 383.73 163.552C374.702 163.552 366.118 161.924 357.978 158.668C349.986 155.264 343.03 150.676 337.11 144.904C331.19 139.132 326.454 132.398 322.902 124.702C319.498 117.006 317.796 108.792 317.796 100.06C317.796 91.328 319.498 83.114 322.902 75.418C326.454 67.722 331.19 60.988 337.11 55.216C343.03 49.444 349.986 44.93 357.978 41.674C366.118 38.27 374.702 36.568 383.73 36.568ZM384.396 133.36C388.984 133.36 393.276 132.472 397.272 130.696C401.416 128.92 404.968 126.552 407.928 123.592C410.888 120.632 413.256 117.154 415.032 113.158C416.808 109.014 417.696 104.648 417.696 100.06C417.696 95.472 416.808 91.18 415.032 87.184C413.256 83.04 410.888 79.488 407.928 76.528C404.968 73.568 401.416 71.2 397.272 69.424C393.276 67.648 388.984 66.76 384.396 66.76C379.808 66.76 375.442 67.648 371.298 69.424C367.302 71.2 363.824 73.568 360.864 76.528C357.904 79.488 355.536 83.04 353.76 87.184C351.984 91.18 351.096 95.472 351.096 100.06C351.096 104.648 351.984 109.014 353.76 113.158C355.536 117.154 357.904 120.632 360.864 123.592C363.824 126.552 367.302 128.92 371.298 130.696C375.442 132.472 379.808 133.36 384.396 133.36ZM463.024 100.06C463.024 91.328 464.504 83.114 467.464 75.418C470.572 67.722 474.864 60.988 480.34 55.216C485.816 49.444 492.328 44.93 499.876 41.674C507.572 38.27 516.008 36.568 525.184 36.568C534.36 36.568 542.722 38.27 550.27 41.674C557.966 44.93 564.552 49.444 570.028 55.216C575.504 60.988 579.722 67.722 582.682 75.418C585.79 83.114 587.344 91.328 587.344 100.06V160H554.044V100.06C554.044 95.472 553.378 91.18 552.046 87.184C550.862 83.04 549.012 79.488 546.496 76.528C544.128 73.568 541.094 71.2 537.394 69.424C533.842 67.648 529.772 66.76 525.184 66.76C520.596 66.76 516.452 67.648 512.752 69.424C509.2 71.2 506.166 73.568 503.65 76.528C501.282 79.488 499.432 83.04 498.1 87.184C496.916 91.18 496.324 95.472 496.324 100.06V160H463.024V100.06Z" fill="white"/>
</svg>
